<svg xmlns="http://www.w3.org/2000/svg" viewBox="0 0 222 226" fill="none">
  <path fill="#031C35" d="M204.92 53.8039C215.737 70.9607 222 91.3022 222 113.113C222 174.416 172.527 224.113 111.5 224.113C89.7876 224.113 69.538 217.822 52.4585 206.956L75.111 184.201C86.0162 189.845 98.3874 193.033 111.5 193.033C155.44 193.033 191.06 157.251 191.06 113.113C191.06 99.9409 187.887 87.5135 182.268 76.5589L204.92 53.8039Z"/>
  <path fill="#031C35" d="M111.5 2.11269C133.212 2.11269 153.462 8.40351 170.541 19.2691L147.889 42.024C136.983 36.38 124.612 33.1931 111.5 33.1931C67.5602 33.1931 31.94 68.9744 31.94 113.113C31.94 126.284 35.1131 138.711 40.7317 149.666L18.0787 172.421C7.26208 155.264 1.00004 134.923 1 113.113C1 51.8094 50.4725 2.11269 111.5 2.11269Z"/>
  <path fill="#0015FC" d="M0 200.113L178.225 21.8873L222 21.8873L43.7746 200.113L0 200.113Z"/>
</svg>
